{
  "title": "Teenage Mutant Ninja -2 Out Of The Shadows (2016) HQ 1080p Blu-r",
  "uid": 15808831,
  "size": 13983599503,
  "categoryP": "video",
  "categoryS": "hd___movies",
  "magnet": "?xt=urn:btih:2e4f46bb6ddd7a92dfa2d5bd0b20b7d34f2d316d&amp;dn=Teenage+Mutant+Ninja+-2+Out+Of+The+Shadows+%282016%29+HQ+1080p+Blu-r&amp;tr=udp%3A%2F%2Ftracker.leechers-paradise.org%3A6969&amp;tr=udp%3A%2F%2Fzer0day.ch%3A1337&amp;tr=udp%3A%2F%2Fopen.demonii.com%3A1337&amp;tr=udp%3A%2F%2Ftracker.coppersurfer.tk%3A6969&amp;tr=udp%3A%2F%2Fexodus.desync.com%3A6969",
  "seeders": 73,
  "leechers": 44,
  "uploader": "SaM",
  "files": 3,
  "time": 1473616202,
  "description": "1080p Blu-ray Rip x264\r\n\r\n\r\n\r\nEnglsih Dolby ATMOS 7.1 Audio\r\n\r\nFrançais AC3 5.1 Audio\r\n\r\n\r\n\r\n\r\nEnglish, French, Spanish, Portuguese &amp; Hindi + SDH + Forced Subtitles\r\n \nhttp://extraimago.com/image/wivi \nhttp://extraimago.com/image/wivm \nhttp://extraimago.com/image/wivR \nhttp://extraimago.com/image/wivQ \nhttp://extraimago.com/image/wivL \nhttp://extraimago.com/image/wivy \nhttp://extraimago.com/image/wivq \nhttp://extraimago.com/image/wivS \nhttp://extraimago.com/image/wivO \nhttp://extraimago.com/image/wivE \nhttp://extraimago.com/image/wiv1 \nhttp://extraimago.com/image/wivc \nhttp://extraimago.com/image/wiv7 \nhttp://extraimago.com/image/wivs\r\n\r\nSpecs:\r\nSource: BD50 @ HDC\r\n\r\nFormat : Matroska\r\nFile size : 12.9 GiB\r\nDuration : 1 h 52 min\r\nOverall bit rate mode : Variable\r\nOverall bit rate : 16.5 Mb/s\r\n\r\nVideo\r\nFormat : AVC\r\nFormat/Info : Advanced Video Codec\r\nFormat profile :   \r\nFormat settings, CABAC : Yes\r\nFormat settings, ReFrames : 5 frames\r\nCodec ID : V_MPEG4/ISO/AVC\r\nDuration : 1 h 52 min\r\nBit rate : 10 000 kb/s\r\nWidth : 1 920 pixels\r\nHeight : 800 pixels\r\nDisplay aspect ratio : 2.40:1\r\nFrame rate mode : Constant\r\nFrame rate : 23.976 (24000/1001) FPS\r\nColor space : YUV\r\nChroma subsampling : 4:2:0\r\nBit depth : 8 bits\r\nScan type : Progressive\r\nBits/(Pixel*Frame) : 0.272\r\nStream size : 7.82 GiB (61%)\r\n\r\nAudio #1\r\nFormat : Atmos / TrueHD\r\nCodec ID : A_TRUEHD\r\nDuration : 1 h 52 min\r\nBit rate mode : Variable\r\nBit rate : 5 081 kb/s\r\nMaximum bit rate : 8 040 kb/s\r\nChannel(s) : Object Based / 8 channels\r\nChannel positions : Object Based / Front: L C R, Side: L R, Back: L R, LFE\r\nSampling rate : / 48.0 kHz\r\nFrame rate : 1 200.000 FPS (40 spf)\r\nCompression mode : Lossless\r\nStream size : 3.98 GiB (31%)\r\nLanguage : English\r\nDefault : Yes\r\nForced : No\r\n\r\nAudio #2\r\nID : 3\r\nFormat : AC-3\r\nFormat/Info : Audio Coding 3\r\nMode extension : CM (complete main)\r\nFormat settings, Endianness : Big\r\nCodec ID : A_AC3\r\nDuration : 1 h 52 min\r\nBit rate mode : Constant\r\nBit rate : 640 kb/s\r\nChannel(s) : 6 channels\r\nChannel positions : Front: L C R, Side: L R, LFE\r\nSampling rate : 48.0 kHz\r\nFrame rate : 31.250 FPS (1536 spf)\r\nCompression mode : Lossy\r\nStream size : 513 MiB (4%)\r\nLanguage : French\r\nDefault : No\r\nForced : No\r\n\r\nChapters = YES\r\n\r\nSAMPLE Included",
  "parsed": {
    "xt": "urn:btih:2e4f46bb6ddd7a92dfa2d5bd0b20b7d34f2d316d",
    "dn": "Teenage Mutant Ninja -2 Out Of The Shadows (2016) HQ 1080p Blu-r",
    "tr": [
      "udp://exodus.desync.com:6969",
      "udp://open.demonii.com:1337",
      "udp://tracker.coppersurfer.tk:6969",
      "udp://tracker.leechers-paradise.org:6969",
      "udp://zer0day.ch:1337"
    ],
    "infoHash": "2e4f46bb6ddd7a92dfa2d5bd0b20b7d34f2d316d",
    "infoHashBuffer": {
      "type": "Buffer",
      "data": [
        46,
        79,
        70,
        187,
        109,
        221,
        122,
        146,
        223,
        162,
        213,
        189,
        11,
        32,
        183,
        211,
        79,
        45,
        49,
        109
      ]
    },
    "name": "Teenage Mutant Ninja -2 Out Of The Shadows (2016) HQ 1080p Blu-r",
    "announce": [
      "udp://exodus.desync.com:6969",
      "udp://open.demonii.com:1337",
      "udp://tracker.coppersurfer.tk:6969",
      "udp://tracker.leechers-paradise.org:6969",
      "udp://zer0day.ch:1337"
    ],
    "urlList": []
  },
  "previous": 65,
  "peers": 28,
  "last_updated": "2016-12-26T20:19:27.048Z"
}